<?xml version="1.0" encoding="iso-8859-1"?>
<!-- Generator: Adobe Illustrator 16.0.0, SVG Export Plug-In . SVG Version: 6.00 Build 0)  -->
<!DOCTYPE svg PUBLIC "-//W3C//DTD SVG 1.1//EN" "http://www.w3.org/Graphics/SVG/1.1/DTD/svg11.dtd">
<svg version="1.1" id="Layer_1" xmlns="http://www.w3.org/2000/svg" xmlns:xlink="http://www.w3.org/1999/xlink" x="0px" y="0px"
	 width="164.94px" height="129.89px" viewBox="0 0 164.94 129.89" style="enable-background:new 0 0 164.94 129.89;"
	 xml:space="preserve">
<g>
	<polygon style="fill:#3BA33C;" points="147.609,59.253 95.585,58.959 95.165,20.325 147.609,20.325 	"/>
	<path style="fill:#3BA33C;" d="M153.252,60.787L153.252,60.787H100.42l0,0c-4.054,0-7.338-3.283-7.338-7.338v-33.75
		c0-0.809,0.656-1.468,1.47-1.468l0,0h4.402v-7.335c0-3.243,2.627-5.871,5.87-5.871h14.674c3.245,0,5.871,2.628,5.871,5.871v1.465
		h33.751c0.813,0,1.47,0.657,1.47,1.468v39.62C160.59,57.503,157.306,60.787,153.252,60.787z M96.021,21.167v32.282l0,0
		c0,2.432,1.969,4.402,4.402,4.402h46.993c-0.93-1.229-1.502-2.744-1.502-4.402V21.167H96.021z M157.653,15.296h-35.219v-4.4
		c0-1.62-1.315-2.935-2.937-2.935h-14.674c-1.618,0-2.935,1.315-2.935,2.935v7.335h45.492l0,0c0.407,0,0.777,0.167,1.042,0.438
		c0.262,0.266,0.422,0.625,0.422,1.03l0,0v33.75c0,2.432,1.973,4.402,4.406,4.402s4.401-1.971,4.401-4.402V15.296z"/>
	<path style="fill:#3BA33C;" d="M64.771,126.818L64.771,126.818H11.944l0,0c-4.056,0-7.339-3.283-7.339-7.338V85.73
		c0-0.809,0.653-1.467,1.469-1.467l0,0h4.402v-7.338c0-3.242,2.63-5.871,5.871-5.871H31.02c3.242,0,5.871,2.631,5.871,5.871v1.467
		h33.753c0.808,0,1.466,0.66,1.466,1.467v39.625C72.109,123.535,68.823,126.818,64.771,126.818z M7.541,87.199v32.281l0,0
		c0,2.432,1.968,4.402,4.403,4.402h46.99c-0.929-1.229-1.501-2.74-1.501-4.402V87.199H7.541z M69.173,81.328H33.952v-4.402
		c0-1.617-1.315-2.936-2.935-2.936H16.344c-1.621,0-2.936,1.318-2.936,2.936v7.338h45.49l0,0c0.408,0,0.779,0.166,1.044,0.438
		c0.261,0.266,0.423,0.625,0.423,1.027l0,0v33.75c0,2.43,1.971,4.402,4.404,4.402s4.403-1.969,4.403-4.402V81.328z"/>
	<rect x="6.478" y="86.314" style="fill:#3BA33C;" width="52.457" height="38.379"/>
	<g id="layer1" transform="translate(0,-540.36218)">
		<g id="g3016" transform="matrix(-1,0,0,1,502.69953,6.6120369e-6)">
		</g>
		<g id="g3042">
			<path id="path3026" style="fill:#B4CD3A;" d="M85.928,562.797c-6.857-0.036-13.723,1.556-19.998,4.787l2.753,5.354
				c10.031-5.162,21.802-5.483,32.042-0.964l-3.13,3.767l19.134,5.344l-8.765-17.828l-3.274,3.943
				C98.773,564.3,92.355,562.83,85.928,562.797z"/>
			<path id="path3038" style="fill:#B4CD3A;" d="M124.648,586.769l-5.35,2.755c5.162,10.029,5.484,21.801,0.964,32.042l-3.766-3.131
				l-5.344,19.135l17.826-8.768l-3.943-3.273C131.023,613.298,130.906,598.923,124.648,586.769z"/>
			<path id="path3044" style="fill:#B4CD3A;" d="M54.665,631.993l8.768,17.828l3.273-3.945c12.231,5.984,26.607,5.867,38.759-0.389
				l-2.752-5.346c-10.033,5.164-21.801,5.484-32.04,0.963l3.133-3.766L54.665,631.993z"/>
			<path id="path3008" style="fill:#B4CD3A;" d="M60.242,575.504l-17.832,8.768l3.945,3.272
				c-5.979,12.229-5.863,26.609,0.391,38.761l5.35-2.754c-5.162-10.035-5.483-21.803-0.963-32.042l3.765,3.132L60.242,575.504z"/>
		</g>
	</g>
</g>
</svg>
