<?xml version="1.0" encoding="iso-8859-1"?>
<!-- Generator: Adobe Illustrator 16.0.0, SVG Export Plug-In . SVG Version: 6.00 Build 0)  -->
<!DOCTYPE svg PUBLIC "-//W3C//DTD SVG 1.1//EN" "http://www.w3.org/Graphics/SVG/1.1/DTD/svg11.dtd">
<svg version="1.1" id="Layer_1" xmlns="http://www.w3.org/2000/svg" xmlns:xlink="http://www.w3.org/1999/xlink" x="0px" y="0px"
	 width="164.94px" height="129.89px" viewBox="0 0 164.94 129.89" style="enable-background:new 0 0 164.94 129.89;"
	 xml:space="preserve">
<g>
	<path style="fill:#3AA23B;" d="M158.363,19.278L111.519,6.974c-2.294-0.604-4.692,0.772-5.302,3.097l-26.213,99.791
		c-0.604,2.296,0.771,4.694,3.095,5.304l46.843,12.305c2.327,0.61,4.694-0.773,5.305-3.098l26.212-99.79
		C162.063,22.286,160.687,19.89,158.363,19.278z M124.159,17.304l17.922,4.707c0.276,0.074,0.439,0.355,0.367,0.629
		c-0.072,0.277-0.353,0.442-0.631,0.37l-17.919-4.708c-0.276-0.073-0.441-0.354-0.367-0.631
		C123.603,17.396,123.883,17.231,124.159,17.304z M107.095,118.506c-2.552-0.671-4.076-3.283-3.408-5.836
		c0.672-2.553,3.284-4.076,5.835-3.405c2.553,0.669,4.079,3.281,3.408,5.833C112.261,117.65,109.647,119.176,107.095,118.506z
		 M134.003,112.702l-47.236-12.407l21.624-82.32l47.234,12.408L134.003,112.702z"/>
	<path style="fill:#B4CD3A;" d="M125.536,48.93c-10.103-2.654-20.443,3.385-23.097,13.488c-2.655,10.1,3.384,20.442,13.488,23.096
		c10.102,2.652,20.441-3.386,23.095-13.486C141.677,61.925,135.639,51.583,125.536,48.93z M124.461,55.875
		c1.157-0.809,2.858-1.189,4.104-0.917c-0.221,1.486-1.181,2.782-2.312,3.6c-1.133,0.817-2.748,1.259-4.098,0.788
		C122.34,57.883,123.422,56.59,124.461,55.875z M126.304,77.443c-1.42,1.235-2.872,2.449-4.552,2.041
		c-1.656-0.399-1.919-1.549-3.796-2.042c-1.882-0.495-2.718,0.299-4.291-0.047c-1.63-0.365-2.416-2.373-3.057-4.138
		c-1.306-3.611-1.449-9.626,1.708-12.831c1.564-1.591,3.798-2.272,5.89-1.757c1.593,0.389,2.801,1.884,3.771,2.139
		c0.972,0.255,3.137-0.591,4.999,0.105c0.791,0.243,2.961,1.124,3.848,3.62c-0.133,0.045-3.094,0.87-3.884,3.999
		c-0.948,3.737,1.954,5.825,1.985,5.853C128.874,74.464,127.944,76.019,126.304,77.443z"/>
	<g>
		<circle style="fill:#B4CD3A;" cx="45.233" cy="54.96" r="0.737"/>
		<circle style="fill:#B4CD3A;" cx="50.936" cy="56.458" r="0.738"/>
		<path style="fill:#B4CD3A;" d="M50.74,45.565c-10.062-2.644-20.363,3.371-23.005,13.434c-2.644,10.063,3.372,20.364,13.434,23.006
			c10.063,2.644,20.364-3.371,23.006-13.435C66.819,58.509,60.803,48.208,50.74,45.565z M37.499,64.781
			c-0.208,0.788-0.949,1.273-1.736,1.068c-0.787-0.208-1.194-0.995-0.987-1.783l1.602-6.098c0.208-0.789,0.948-1.275,1.736-1.069
			c0.787,0.208,1.195,0.996,0.987,1.784L37.499,64.781z M53.393,62.15l-0.262,0.996l-2.181,8.304
			c-0.218,0.831-0.957,1.326-1.788,1.106l-1.086-0.285c0.009,0.113-0.111,0.278-0.146,0.415l-0.021,0.081l-0.125,0.475l-0.645,2.457
			c-0.206,0.785-0.948,1.274-1.736,1.066c-0.786-0.206-1.193-0.996-0.987-1.783l0.646-2.455l0.124-0.475l0.021-0.081
			c0.036-0.138,0.068-0.326,0.131-0.42l-2.647-0.693c0.009,0.11-0.071,0.288-0.106,0.425l-0.022,0.08l-0.125,0.475l-0.645,2.456
			c-0.207,0.785-0.948,1.274-1.735,1.068c-0.787-0.208-1.193-0.997-0.987-1.784l0.645-2.455l0.125-0.474l0.021-0.082
			c0.036-0.136,0.027-0.338,0.092-0.43l-1.088-0.285c-0.83-0.219-1.245-1.017-1.027-1.846l2.182-8.304l0.253-0.967l0.304-1.156
			l0.012,0.003l13.099,3.441L53.393,62.15z M40.751,56.547c0.53-2.019,2.363-3.444,4.628-3.853l-0.166-0.459l-0.162-0.467
			l-0.359-1.043c-0.043-0.13,0.024-0.27,0.153-0.313c0.128-0.043,0.269,0.025,0.313,0.154l0.384,1.12l0.162,0.471l0.164,0.478
			c0.947-0.108,1.953-0.042,2.963,0.223c1.011,0.266,1.921,0.704,2.691,1.263l0.377-0.335l0.373-0.331l0.886-0.786
			c0.101-0.092,0.256-0.083,0.348,0.02c0.088,0.101,0.08,0.256-0.023,0.347l-0.824,0.731l0,0l-0.368,0.321l-0.372,0.324
			c1.771,1.47,2.667,3.613,2.136,5.631L40.751,56.547z M55.553,69.524c-0.207,0.786-0.948,1.274-1.735,1.069
			c-0.789-0.207-1.195-0.998-0.988-1.785l1.602-6.098c0.207-0.789,0.949-1.275,1.737-1.068c0.786,0.207,1.193,0.995,0.986,1.783
			L55.553,69.524z"/>
	</g>
	<g id="Livello_12_1_">
		<path style="fill:#3AA23B;" d="M61.678,108.004L10.526,94.567l21.779-82.91l51.151,13.437L61.678,108.004z M29.911,108.656
			c0.599-2.278,2.915-3.646,5.173-3.054c2.26,0.595,3.604,2.924,3.004,5.204c-0.598,2.278-2.914,3.649-5.174,3.056
			C30.657,113.269,29.312,110.936,29.911,108.656 M61.913,121.07l0.008,0.003l26.1-99.363v-0.001l0.005-0.018l-0.002-0.001
			c0.585-2.272-0.771-4.592-3.044-5.19c-0.018-0.004-0.03-0.005-0.045-0.008V16.49l-9.267-2.435L48.633,6.953l-13.43-3.528
			c-2.271-0.593-4.591,0.759-5.199,3.024l0,0L3.897,105.83l0.005,0.002c-0.013,0.041-0.028,0.083-0.041,0.129
			c-0.583,2.224,0.812,4.516,3.117,5.122c0.034,0.008,0.068,0.013,0.102,0.021l-0.001,0.006l49.679,13.05l0,0
			c2.246,0.589,4.542-0.734,5.126-2.958C61.898,121.156,61.903,121.114,61.913,121.07"/>
	</g>
</g>
</svg>
