<?xml version="1.0" encoding="iso-8859-1"?>
<!-- Generator: Adobe Illustrator 16.0.0, SVG Export Plug-In . SVG Version: 6.00 Build 0)  -->
<!DOCTYPE svg PUBLIC "-//W3C//DTD SVG 1.1//EN" "http://www.w3.org/Graphics/SVG/1.1/DTD/svg11.dtd">
<svg version="1.1" id="Layer_1" xmlns="http://www.w3.org/2000/svg" xmlns:xlink="http://www.w3.org/1999/xlink" x="0px" y="0px"
	 width="164.94px" height="129.89px" viewBox="0 0 164.94 129.89" style="enable-background:new 0 0 164.94 129.89;"
	 xml:space="preserve">
<g>
	<path style="fill:#3BA33C;" d="M110.493,34.588h-4.181v-2.459c0-0.441,0.168-0.881,0.505-1.218
		c0.336-0.336,0.776-0.504,1.217-0.504h0.738c0.439,0,0.881,0.168,1.216,0.504c0.337,0.337,0.505,0.777,0.505,1.218V34.588
		L110.493,34.588z M117.788,32.129c0-0.441-0.168-0.881-0.504-1.218c-0.336-0.336-0.777-0.504-1.217-0.504h-0.738
		c-0.44,0-0.881,0.168-1.218,0.504c-0.335,0.337-0.504,0.777-0.504,1.218v2.459h4.181V32.129z M125.083,32.129
		c0-0.441-0.168-0.881-0.504-1.218c-0.337-0.336-0.776-0.504-1.217-0.504h-0.738c-0.44,0-0.881,0.168-1.218,0.504
		c-0.335,0.337-0.504,0.777-0.504,1.218v2.459h4.18L125.083,32.129L125.083,32.129z M132.379,32.129
		c0-0.441-0.169-0.881-0.504-1.218c-0.337-0.336-0.778-0.504-1.218-0.504h-0.738c-0.44,0-0.881,0.168-1.217,0.504
		c-0.337,0.337-0.504,0.777-0.504,1.218v2.459h4.181V32.129z M139.673,32.129c0-0.441-0.168-0.881-0.504-1.218
		c-0.336-0.336-0.777-0.504-1.217-0.504h-0.738c-0.44,0-0.881,0.168-1.217,0.504c-0.336,0.337-0.504,0.777-0.504,1.218v2.459h4.18
		V32.129L139.673,32.129z M93.854,73.769c-0.44,0-0.881,0.168-1.217,0.504c-0.337,0.336-0.505,0.777-0.505,1.219v0.736
		c0,0.441,0.168,0.881,0.505,1.217c0.336,0.336,0.777,0.506,1.217,0.506h2.459v-4.182H93.854z M93.854,66.474
		c-0.44,0-0.881,0.168-1.217,0.504c-0.337,0.336-0.505,0.777-0.505,1.217v0.738c0,0.441,0.168,0.881,0.505,1.217
		c0.336,0.336,0.777,0.504,1.217,0.504h2.459v-4.18H93.854z M93.854,59.178c-0.44,0-0.881,0.167-1.217,0.505
		c-0.337,0.335-0.505,0.775-0.505,1.217v0.737c0,0.44,0.168,0.881,0.505,1.217c0.336,0.336,0.777,0.505,1.217,0.505h2.459v-4.181
		H93.854z M93.854,51.883c-0.44,0-0.881,0.168-1.217,0.504c-0.337,0.337-0.505,0.776-0.505,1.217v0.738
		c0,0.44,0.168,0.881,0.505,1.218c0.336,0.335,0.777,0.504,1.217,0.504h2.459v-4.181H93.854z M93.854,44.588
		c-0.44,0-0.881,0.168-1.217,0.504c-0.337,0.336-0.505,0.776-0.505,1.217v0.737c0,0.442,0.168,0.883,0.505,1.218
		c0.336,0.337,0.777,0.504,1.217,0.504h2.459v-4.18H93.854z M149.674,73.769v4.182h2.459c0.44,0,0.881-0.17,1.218-0.506
		c0.336-0.336,0.504-0.775,0.504-1.217v-0.736c0-0.441-0.168-0.883-0.504-1.219c-0.337-0.336-0.778-0.504-1.218-0.504H149.674
		L149.674,73.769z M149.674,66.474v4.18h2.459c0.44,0,0.881-0.168,1.218-0.504c0.336-0.336,0.504-0.777,0.504-1.217v-0.738
		c0-0.439-0.168-0.881-0.504-1.217c-0.337-0.336-0.778-0.504-1.218-0.504H149.674z M149.674,59.178v4.181h2.459
		c0.44,0,0.881-0.169,1.218-0.505c0.336-0.336,0.504-0.776,0.504-1.217V60.9c0-0.441-0.168-0.882-0.504-1.217
		c-0.337-0.337-0.778-0.505-1.218-0.505H149.674z M149.674,51.883v4.18h2.459c0.44,0,0.881-0.168,1.218-0.503
		c0.336-0.336,0.504-0.777,0.504-1.218v-0.738c0-0.44-0.168-0.88-0.504-1.217c-0.337-0.335-0.778-0.504-1.218-0.504H149.674z
		 M149.674,44.588v4.18h2.459c0.44,0,0.881-0.167,1.218-0.504c0.336-0.335,0.504-0.775,0.504-1.218v-0.737
		c0-0.44-0.168-0.881-0.504-1.217c-0.337-0.336-0.778-0.504-1.218-0.504H149.674z M110.493,87.95h-4.181v2.459
		c0,0.439,0.168,0.881,0.505,1.215c0.336,0.338,0.776,0.506,1.217,0.506h0.738c0.439,0,0.881-0.168,1.216-0.506
		c0.337-0.334,0.505-0.775,0.505-1.215V87.95L110.493,87.95z M117.788,87.95h-4.181v2.459c0,0.439,0.169,0.881,0.504,1.215
		c0.337,0.338,0.777,0.506,1.218,0.506h0.738c0.439,0,0.88-0.168,1.217-0.506c0.336-0.334,0.504-0.775,0.504-1.215V87.95z
		 M125.083,87.95h-4.181v2.459c0,0.439,0.168,0.881,0.504,1.215c0.337,0.338,0.777,0.506,1.218,0.506h0.738
		c0.44,0,0.88-0.168,1.217-0.506c0.336-0.334,0.503-0.775,0.503-1.215L125.083,87.95L125.083,87.95z M132.379,87.95h-4.181v2.459
		c0,0.439,0.167,0.881,0.504,1.215c0.336,0.338,0.776,0.506,1.217,0.506h0.738c0.439,0,0.881-0.168,1.218-0.506
		c0.335-0.334,0.504-0.775,0.504-1.215V87.95z M139.673,87.95h-4.18v2.459c0,0.439,0.168,0.881,0.504,1.215
		c0.336,0.338,0.777,0.506,1.217,0.506h0.738c0.44,0,0.881-0.168,1.217-0.506c0.336-0.334,0.504-0.775,0.504-1.215V87.95
		L139.673,87.95z"/>
	<path style="fill:#3BA33C;" d="M107.09,40.859l-4.507,4.506v31.806l4.507,4.506h31.807l4.506-4.506V45.365l-4.506-4.506H107.09
		L107.09,40.859z M115.594,59.966l-1.794,0.285v-1.458h-4.834v4.877h4.835v-1.654l1.794,0.371v0.911
		c0,0.705-0.134,1.185-0.398,1.439c-0.265,0.256-0.769,0.383-1.513,0.383h-4.601c-0.748,0-1.253-0.127-1.516-0.383
		c-0.263-0.255-0.395-0.734-0.395-1.439v-4.06c0-0.7,0.132-1.18,0.395-1.437c0.263-0.258,0.768-0.386,1.516-0.386h4.601
		c0.744,0,1.248,0.128,1.513,0.386c0.264,0.257,0.397,0.736,0.397,1.437V59.966z M127.622,60.63c0,0.52-0.138,0.897-0.412,1.134
		c-0.275,0.236-0.717,0.354-1.33,0.354h-4.826v3.003h-1.764v-7.704h6.59c0.613,0,1.055,0.117,1.33,0.353
		c0.274,0.236,0.412,0.616,0.412,1.142V60.63z M138.812,63.298c0,0.705-0.13,1.185-0.393,1.439
		c-0.263,0.256-0.768,0.383-1.517,0.383h-4.869c-0.744,0-1.248-0.127-1.514-0.383c-0.264-0.255-0.396-0.734-0.396-1.439v-5.882
		h1.792v6.255h5.111v-6.255h1.785L138.812,63.298L138.812,63.298z M125.723,58.885c0.115,0.09,0.172,0.246,0.172,0.47v0.824
		c0,0.227-0.057,0.387-0.172,0.477c-0.114,0.09-0.326,0.135-0.638,0.135h-4.031v-2.04h4.031
		C125.396,58.75,125.608,58.794,125.723,58.885z M147.235,43.286l-6.261-6.26c-0.189-0.191-0.567-0.348-0.838-0.348H105.85
		c-0.271,0-0.648,0.156-0.84,0.348l-6.259,6.26c-0.191,0.19-0.349,0.568-0.349,0.839v34.287c0,0.271,0.157,0.648,0.349,0.84
		l6.259,6.26c0.192,0.193,0.569,0.348,0.84,0.348h34.287c0.271,0,0.648-0.154,0.839-0.348l6.26-6.26
		c0.191-0.191,0.349-0.568,0.349-0.84V44.125C147.583,43.854,147.426,43.476,147.235,43.286z M145.124,77.886l-5.515,5.514h-33.233
		l-5.515-5.514V44.652l5.515-5.515h33.233l5.515,5.515V77.886L145.124,77.886z"/>
</g>
<rect x="104.399" y="51.316" style="fill:#3BA33C;" width="35.645" height="17.976"/>
<g>
	<path style="fill:#3BA33C;" d="M31.026,34.588h-4.181v-2.459c0-0.441,0.168-0.881,0.505-1.218c0.336-0.336,0.776-0.504,1.217-0.504
		h0.738c0.439,0,0.88,0.168,1.216,0.504c0.337,0.337,0.505,0.777,0.505,1.218V34.588L31.026,34.588z M38.321,32.129
		c0-0.441-0.168-0.881-0.504-1.218c-0.336-0.336-0.777-0.504-1.218-0.504h-0.737c-0.44,0-0.882,0.168-1.217,0.504
		c-0.336,0.337-0.505,0.777-0.505,1.218v2.459h4.181V32.129z M45.616,32.129c0-0.441-0.168-0.881-0.504-1.218
		c-0.336-0.336-0.776-0.504-1.217-0.504h-0.737c-0.441,0-0.882,0.168-1.218,0.504c-0.337,0.337-0.504,0.777-0.504,1.218v2.459h4.179
		L45.616,32.129L45.616,32.129z M52.912,32.129c0-0.441-0.169-0.881-0.504-1.218c-0.337-0.336-0.778-0.504-1.218-0.504h-0.738
		c-0.44,0-0.881,0.168-1.217,0.504c-0.337,0.337-0.504,0.777-0.504,1.218v2.459h4.181V32.129z M60.206,32.129
		c0-0.441-0.168-0.881-0.504-1.218c-0.336-0.336-0.777-0.504-1.217-0.504h-0.738c-0.44,0-0.881,0.168-1.217,0.504
		c-0.336,0.337-0.504,0.777-0.504,1.218v2.459h4.18V32.129L60.206,32.129z M14.387,73.769c-0.44,0-0.881,0.168-1.217,0.504
		c-0.337,0.336-0.505,0.777-0.505,1.219v0.736c0,0.441,0.168,0.881,0.505,1.217c0.336,0.336,0.776,0.506,1.217,0.506h2.459v-4.182
		H14.387z M14.387,66.474c-0.44,0-0.881,0.168-1.217,0.504c-0.337,0.336-0.505,0.777-0.505,1.217v0.738
		c0,0.441,0.168,0.881,0.505,1.217c0.336,0.336,0.776,0.504,1.217,0.504h2.459v-4.18H14.387z M14.387,59.178
		c-0.44,0-0.881,0.167-1.217,0.505c-0.337,0.335-0.505,0.775-0.505,1.217v0.737c0,0.44,0.168,0.881,0.505,1.217
		c0.336,0.336,0.776,0.505,1.217,0.505h2.459v-4.181H14.387z M14.387,51.883c-0.44,0-0.881,0.168-1.217,0.504
		c-0.337,0.337-0.505,0.776-0.505,1.217v0.738c0,0.44,0.168,0.881,0.505,1.218c0.336,0.335,0.776,0.504,1.217,0.504h2.459v-4.181
		H14.387z M14.387,44.588c-0.44,0-0.881,0.168-1.217,0.504c-0.337,0.336-0.505,0.776-0.505,1.217v0.737
		c0,0.442,0.168,0.883,0.505,1.218c0.336,0.337,0.776,0.504,1.217,0.504h2.459v-4.18H14.387z M70.207,73.769v4.182h2.459
		c0.44,0,0.881-0.17,1.218-0.506c0.336-0.336,0.504-0.775,0.504-1.217v-0.736c0-0.441-0.168-0.883-0.504-1.219
		c-0.337-0.336-0.778-0.504-1.218-0.504H70.207L70.207,73.769z M70.207,66.474v4.18h2.459c0.44,0,0.881-0.168,1.218-0.504
		c0.336-0.336,0.504-0.777,0.504-1.217v-0.738c0-0.439-0.168-0.881-0.504-1.217c-0.337-0.336-0.778-0.504-1.218-0.504H70.207z
		 M70.207,59.178v4.181h2.459c0.44,0,0.881-0.169,1.218-0.505c0.336-0.336,0.504-0.776,0.504-1.217V60.9
		c0-0.441-0.168-0.882-0.504-1.217c-0.337-0.337-0.778-0.505-1.218-0.505H70.207z M70.207,51.883v4.18h2.459
		c0.44,0,0.881-0.168,1.218-0.503c0.336-0.336,0.504-0.777,0.504-1.218v-0.738c0-0.44-0.168-0.88-0.504-1.217
		c-0.337-0.335-0.778-0.504-1.218-0.504H70.207z M70.207,44.588v4.18h2.459c0.44,0,0.881-0.167,1.218-0.504
		c0.336-0.335,0.504-0.775,0.504-1.218v-0.737c0-0.44-0.168-0.881-0.504-1.217c-0.337-0.336-0.778-0.504-1.218-0.504H70.207z
		 M31.026,87.95h-4.181v2.459c0,0.439,0.168,0.881,0.505,1.215c0.336,0.338,0.776,0.506,1.217,0.506h0.738
		c0.439,0,0.88-0.168,1.216-0.506c0.337-0.334,0.505-0.775,0.505-1.215V87.95L31.026,87.95z M38.321,87.95h-4.181v2.459
		c0,0.439,0.169,0.881,0.505,1.215c0.335,0.338,0.776,0.506,1.217,0.506H36.6c0.44,0,0.881-0.168,1.218-0.506
		c0.336-0.334,0.504-0.775,0.504-1.215V87.95z M45.616,87.95h-4.18v2.459c0,0.439,0.167,0.881,0.504,1.215
		c0.336,0.338,0.776,0.506,1.218,0.506h0.737c0.44,0,0.881-0.168,1.217-0.506c0.336-0.334,0.503-0.775,0.503-1.215L45.616,87.95
		L45.616,87.95z M52.912,87.95h-4.181v2.459c0,0.439,0.167,0.881,0.504,1.215c0.336,0.338,0.776,0.506,1.217,0.506h0.738
		c0.439,0,0.881-0.168,1.218-0.506c0.335-0.334,0.504-0.775,0.504-1.215V87.95z M60.206,87.95h-4.18v2.459
		c0,0.439,0.168,0.881,0.504,1.215c0.336,0.338,0.777,0.506,1.217,0.506h0.738c0.44,0,0.881-0.168,1.217-0.506
		c0.336-0.334,0.504-0.775,0.504-1.215V87.95L60.206,87.95z"/>
	<path style="fill:#3BA33C;" d="M27.623,40.859l-4.507,4.506v31.806l4.507,4.506H59.43l4.506-4.506V45.365l-4.506-4.506H27.623
		L27.623,40.859z M36.127,59.966l-1.794,0.285v-1.458h-4.834v4.877h4.835v-1.654l1.793,0.371v0.911c0,0.705-0.133,1.185-0.396,1.439
		c-0.266,0.256-0.77,0.383-1.514,0.383h-4.601c-0.748,0-1.253-0.127-1.516-0.383c-0.263-0.255-0.394-0.734-0.394-1.439v-4.06
		c0-0.7,0.131-1.18,0.394-1.437c0.263-0.258,0.768-0.386,1.516-0.386h4.601c0.744,0,1.248,0.128,1.513,0.386
		c0.264,0.257,0.397,0.736,0.397,1.437V59.966z M48.155,60.63c0,0.52-0.137,0.897-0.412,1.134c-0.274,0.236-0.717,0.354-1.33,0.354
		h-4.826v3.003h-1.764v-7.704h6.59c0.613,0,1.056,0.117,1.33,0.353c0.275,0.236,0.412,0.616,0.412,1.142V60.63z M59.345,63.298
		c0,0.705-0.13,1.185-0.393,1.439c-0.263,0.256-0.768,0.383-1.517,0.383h-4.869c-0.744,0-1.248-0.127-1.514-0.383
		c-0.264-0.255-0.396-0.734-0.396-1.439v-5.882h1.792v6.255h5.111v-6.255h1.785L59.345,63.298L59.345,63.298z M46.256,58.885
		c0.115,0.09,0.172,0.246,0.172,0.47v0.824c0,0.227-0.057,0.387-0.172,0.477c-0.114,0.09-0.325,0.135-0.638,0.135h-4.031v-2.04
		h4.031C45.931,58.75,46.142,58.794,46.256,58.885z M67.769,43.286l-6.261-6.26c-0.189-0.191-0.567-0.348-0.838-0.348H26.383
		c-0.271,0-0.648,0.156-0.84,0.348l-6.259,6.26c-0.191,0.19-0.349,0.568-0.349,0.839v34.287c0,0.271,0.157,0.648,0.349,0.84
		l6.259,6.26c0.191,0.193,0.569,0.348,0.84,0.348h34.288c0.271,0,0.647-0.154,0.838-0.348l6.26-6.26
		c0.191-0.191,0.349-0.568,0.349-0.84V44.125C68.117,43.854,67.96,43.476,67.769,43.286z M65.657,77.886l-5.515,5.514H26.909
		l-5.515-5.514V44.652l5.515-5.515h33.233l5.515,5.515V77.886L65.657,77.886z"/>
</g>
<rect x="24.933" y="51.316" style="fill:#3BA33C;" width="35.645" height="17.976"/>
<circle style="fill:#B4CD3A;" cx="45.188" cy="23.963" r="2.587"/>
<circle style="fill:#B4CD3A;" cx="45.188" cy="23.963" r="2.587"/>
<circle style="fill:#B4CD3A;" cx="122.575" cy="23.963" r="2.587"/>
<circle style="fill:#B4CD3A;" cx="45.188" cy="16.684" r="2.587"/>
<circle style="fill:#B4CD3A;" cx="52.225" cy="16.684" r="2.587"/>
<circle style="fill:#B4CD3A;" cx="59.21" cy="16.684" r="2.587"/>
<circle style="fill:#B4CD3A;" cx="66.195" cy="16.684" r="2.587"/>
<circle style="fill:#B4CD3A;" cx="73.18" cy="16.684" r="2.587"/>
<circle style="fill:#B4CD3A;" cx="80.166" cy="16.684" r="2.587"/>
<circle style="fill:#B4CD3A;" cx="87.15" cy="16.684" r="2.587"/>
<circle style="fill:#B4CD3A;" cx="94.135" cy="16.684" r="2.587"/>
<circle style="fill:#B4CD3A;" cx="101.12" cy="16.684" r="2.587"/>
<circle style="fill:#B4CD3A;" cx="108.019" cy="16.684" r="2.587"/>
<circle style="fill:#B4CD3A;" cx="115.297" cy="16.684" r="2.587"/>
<circle style="fill:#B4CD3A;" cx="115.297" cy="16.684" r="2.587"/>
<circle style="fill:#B4CD3A;" cx="122.575" cy="16.684" r="2.587"/>
<circle style="fill:#B4CD3A;" cx="122.575" cy="97.968" r="2.587"/>
<circle style="fill:#B4CD3A;" cx="122.575" cy="97.968" r="2.587"/>
<circle style="fill:#B4CD3A;" cx="45.188" cy="97.968" r="2.587"/>
<circle style="fill:#B4CD3A;" cx="122.575" cy="105.245" r="2.587"/>
<circle style="fill:#B4CD3A;" cx="115.538" cy="105.245" r="2.587"/>
<circle style="fill:#B4CD3A;" cx="108.553" cy="105.245" r="2.587"/>
<circle style="fill:#B4CD3A;" cx="101.568" cy="105.245" r="2.587"/>
<circle style="fill:#B4CD3A;" cx="94.583" cy="105.245" r="2.587"/>
<circle style="fill:#B4CD3A;" cx="87.598" cy="105.245" r="2.587"/>
<circle style="fill:#B4CD3A;" cx="80.613" cy="105.245" r="2.587"/>
<circle style="fill:#B4CD3A;" cx="73.627" cy="105.245" r="2.587"/>
<circle style="fill:#B4CD3A;" cx="66.643" cy="105.245" r="2.587"/>
<circle style="fill:#B4CD3A;" cx="59.745" cy="105.245" r="2.587"/>
<circle style="fill:#B4CD3A;" cx="52.467" cy="105.245" r="2.587"/>
<circle style="fill:#B4CD3A;" cx="52.467" cy="105.245" r="2.587"/>
<circle style="fill:#B4CD3A;" cx="45.188" cy="105.245" r="2.587"/>
</svg>
